<?xml version="1.0" encoding="UTF-8" standalone="no"?>
<!DOCTYPE svg PUBLIC "-//W3C//DTD SVG 1.1//EN"
 "http://www.w3.org/Graphics/SVG/1.1/DTD/svg11.dtd">
<!-- Generated by graphviz version 2.38.0 (20140413.2041)
 -->
<!-- Title: G Pages: 1 -->
<svg width="961pt" height="221pt"
 viewBox="0.00 0.00 960.50 221.00" xmlns="http://www.w3.org/2000/svg" xmlns:xlink="http://www.w3.org/1999/xlink">
<g id="graph0" class="graph" transform="scale(1 1) rotate(0) translate(4 217)">
<title>G</title>
<polygon fill="white" stroke="none" points="-4,4 -4,-217 956.5,-217 956.5,4 -4,4"/>
<!-- 2323830730480 -->
<g id="node1" class="node"><title>2323830730480</title>
<polygon fill="none" stroke="black" points="0,-166.5 0,-212.5 303,-212.5 303,-166.5 0,-166.5"/>
<text text-anchor="middle" x="61" y="-185.8" font-family="Times New Roman,serif" font-size="14.00">anchor: InputLayer</text>
<polyline fill="none" stroke="black" points="122,-166.5 122,-212.5 "/>
<text text-anchor="middle" x="150" y="-197.3" font-family="Times New Roman,serif" font-size="14.00">input:</text>
<polyline fill="none" stroke="black" points="122,-189.5 178,-189.5 "/>
<text text-anchor="middle" x="150" y="-174.3" font-family="Times New Roman,serif" font-size="14.00">output:</text>
<polyline fill="none" stroke="black" points="178,-166.5 178,-212.5 "/>
<text text-anchor="middle" x="240.5" y="-197.3" font-family="Times New Roman,serif" font-size="14.00">(None, 139, 139, 3)</text>
<polyline fill="none" stroke="black" points="178,-189.5 303,-189.5 "/>
<text text-anchor="middle" x="240.5" y="-174.3" font-family="Times New Roman,serif" font-size="14.00">(None, 139, 139, 3)</text>
</g>
<!-- 2323830729976 -->
<g id="node4" class="node"><title>2323830729976</title>
<polygon fill="none" stroke="black" points="331,-83.5 331,-129.5 620,-129.5 620,-83.5 331,-83.5"/>
<text text-anchor="middle" x="385" y="-102.8" font-family="Times New Roman,serif" font-size="14.00">model_1: Model</text>
<polyline fill="none" stroke="black" points="439,-83.5 439,-129.5 "/>
<text text-anchor="middle" x="467" y="-114.3" font-family="Times New Roman,serif" font-size="14.00">input:</text>
<polyline fill="none" stroke="black" points="439,-106.5 495,-106.5 "/>
<text text-anchor="middle" x="467" y="-91.3" font-family="Times New Roman,serif" font-size="14.00">output:</text>
<polyline fill="none" stroke="black" points="495,-83.5 495,-129.5 "/>
<text text-anchor="middle" x="557.5" y="-114.3" font-family="Times New Roman,serif" font-size="14.00">(None, 139, 139, 3)</text>
<polyline fill="none" stroke="black" points="495,-106.5 620,-106.5 "/>
<text text-anchor="middle" x="557.5" y="-91.3" font-family="Times New Roman,serif" font-size="14.00">(None, 128)</text>
</g>
<!-- 2323830730480&#45;&gt;2323830729976 -->
<g id="edge1" class="edge"><title>2323830730480&#45;&gt;2323830729976</title>
<path fill="none" stroke="black" d="M239.606,-166.473C282.289,-155.803 333.68,-142.955 377.585,-131.979"/>
<polygon fill="black" stroke="black" points="378.559,-135.343 387.411,-129.522 376.861,-128.552 378.559,-135.343"/>
</g>
<!-- 2324137025264 -->
<g id="node2" class="node"><title>2324137025264</title>
<polygon fill="none" stroke="black" points="321,-166.5 321,-212.5 630,-212.5 630,-166.5 321,-166.5"/>
<text text-anchor="middle" x="385" y="-185.8" font-family="Times New Roman,serif" font-size="14.00">positive: InputLayer</text>
<polyline fill="none" stroke="black" points="449,-166.5 449,-212.5 "/>
<text text-anchor="middle" x="477" y="-197.3" font-family="Times New Roman,serif" font-size="14.00">input:</text>
<polyline fill="none" stroke="black" points="449,-189.5 505,-189.5 "/>
<text text-anchor="middle" x="477" y="-174.3" font-family="Times New Roman,serif" font-size="14.00">output:</text>
<polyline fill="none" stroke="black" points="505,-166.5 505,-212.5 "/>
<text text-anchor="middle" x="567.5" y="-197.3" font-family="Times New Roman,serif" font-size="14.00">(None, 139, 139, 3)</text>
<polyline fill="none" stroke="black" points="505,-189.5 630,-189.5 "/>
<text text-anchor="middle" x="567.5" y="-174.3" font-family="Times New Roman,serif" font-size="14.00">(None, 139, 139, 3)</text>
</g>
<!-- 2324137025264&#45;&gt;2323830729976 -->
<g id="edge2" class="edge"><title>2324137025264&#45;&gt;2323830729976</title>
<path fill="none" stroke="black" d="M475.5,-166.366C475.5,-158.152 475.5,-148.658 475.5,-139.725"/>
<polygon fill="black" stroke="black" points="479,-139.607 475.5,-129.607 472,-139.607 479,-139.607"/>
</g>
<!-- 2324137151624 -->
<g id="node3" class="node"><title>2324137151624</title>
<polygon fill="none" stroke="black" points="648.5,-166.5 648.5,-212.5 952.5,-212.5 952.5,-166.5 648.5,-166.5"/>
<text text-anchor="middle" x="710" y="-185.8" font-family="Times New Roman,serif" font-size="14.00">negtive: InputLayer</text>
<polyline fill="none" stroke="black" points="771.5,-166.5 771.5,-212.5 "/>
<text text-anchor="middle" x="799.5" y="-197.3" font-family="Times New Roman,serif" font-size="14.00">input:</text>
<polyline fill="none" stroke="black" points="771.5,-189.5 827.5,-189.5 "/>
<text text-anchor="middle" x="799.5" y="-174.3" font-family="Times New Roman,serif" font-size="14.00">output:</text>
<polyline fill="none" stroke="black" points="827.5,-166.5 827.5,-212.5 "/>
<text text-anchor="middle" x="890" y="-197.3" font-family="Times New Roman,serif" font-size="14.00">(None, 139, 139, 3)</text>
<polyline fill="none" stroke="black" points="827.5,-189.5 952.5,-189.5 "/>
<text text-anchor="middle" x="890" y="-174.3" font-family="Times New Roman,serif" font-size="14.00">(None, 139, 139, 3)</text>
</g>
<!-- 2324137151624&#45;&gt;2323830729976 -->
<g id="edge3" class="edge"><title>2324137151624&#45;&gt;2323830729976</title>
<path fill="none" stroke="black" d="M712.122,-166.473C669.308,-155.803 617.758,-142.955 573.717,-131.979"/>
<polygon fill="black" stroke="black" points="574.41,-128.545 563.861,-129.522 572.718,-135.337 574.41,-128.545"/>
</g>
<!-- 2324137257952 -->
<g id="node5" class="node"><title>2324137257952</title>
<polygon fill="none" stroke="black" points="240.5,-0.5 240.5,-46.5 710.5,-46.5 710.5,-0.5 240.5,-0.5"/>
<text text-anchor="middle" x="327" y="-19.8" font-family="Times New Roman,serif" font-size="14.00">concatenate_1: Concatenate</text>
<polyline fill="none" stroke="black" points="413.5,-0.5 413.5,-46.5 "/>
<text text-anchor="middle" x="441.5" y="-31.3" font-family="Times New Roman,serif" font-size="14.00">input:</text>
<polyline fill="none" stroke="black" points="413.5,-23.5 469.5,-23.5 "/>
<text text-anchor="middle" x="441.5" y="-8.3" font-family="Times New Roman,serif" font-size="14.00">output:</text>
<polyline fill="none" stroke="black" points="469.5,-0.5 469.5,-46.5 "/>
<text text-anchor="middle" x="590" y="-31.3" font-family="Times New Roman,serif" font-size="14.00">[(None, 128), (None, 128), (None, 128)]</text>
<polyline fill="none" stroke="black" points="469.5,-23.5 710.5,-23.5 "/>
<text text-anchor="middle" x="590" y="-8.3" font-family="Times New Roman,serif" font-size="14.00">(None, 384)</text>
</g>
<!-- 2323830729976&#45;&gt;2324137257952 -->
<g id="edge4" class="edge"><title>2323830729976&#45;&gt;2324137257952</title>
<path fill="none" stroke="black" d="M475.5,-83.3664C475.5,-75.1516 475.5,-65.6579 475.5,-56.7252"/>
<polygon fill="black" stroke="black" points="479,-56.6068 475.5,-46.6068 472,-56.6069 479,-56.6068"/>
</g>
</g>
</svg>
