<?xml version="1.0" encoding="UTF-8" standalone="no"?>
<!DOCTYPE svg PUBLIC "-//W3C//DTD SVG 1.1//EN"
 "http://www.w3.org/Graphics/SVG/1.1/DTD/svg11.dtd">
<!-- Generated by graphviz version 2.38.0 (20140413.2041)
 -->
<!-- Title: G Pages: 1 -->
<svg width="961pt" height="304pt"
 viewBox="0.00 0.00 960.50 304.00" xmlns="http://www.w3.org/2000/svg" xmlns:xlink="http://www.w3.org/1999/xlink">
<g id="graph0" class="graph" transform="scale(1 1) rotate(0) translate(4 300)">
<title>G</title>
<polygon fill="white" stroke="none" points="-4,4 -4,-300 956.5,-300 956.5,4 -4,4"/>
<!-- 1856094353056 -->
<g id="node1" class="node"><title>1856094353056</title>
<polygon fill="none" stroke="black" points="0,-249.5 0,-295.5 303,-295.5 303,-249.5 0,-249.5"/>
<text text-anchor="middle" x="61" y="-268.8" font-family="Times New Roman,serif" font-size="14.00">anchor: InputLayer</text>
<polyline fill="none" stroke="black" points="122,-249.5 122,-295.5 "/>
<text text-anchor="middle" x="150" y="-280.3" font-family="Times New Roman,serif" font-size="14.00">input:</text>
<polyline fill="none" stroke="black" points="122,-272.5 178,-272.5 "/>
<text text-anchor="middle" x="150" y="-257.3" font-family="Times New Roman,serif" font-size="14.00">output:</text>
<polyline fill="none" stroke="black" points="178,-249.5 178,-295.5 "/>
<text text-anchor="middle" x="240.5" y="-280.3" font-family="Times New Roman,serif" font-size="14.00">(None, 139, 139, 3)</text>
<polyline fill="none" stroke="black" points="178,-272.5 303,-272.5 "/>
<text text-anchor="middle" x="240.5" y="-257.3" font-family="Times New Roman,serif" font-size="14.00">(None, 139, 139, 3)</text>
</g>
<!-- 1855790059080 -->
<g id="node4" class="node"><title>1855790059080</title>
<polygon fill="none" stroke="black" points="331,-166.5 331,-212.5 620,-212.5 620,-166.5 331,-166.5"/>
<text text-anchor="middle" x="385" y="-185.8" font-family="Times New Roman,serif" font-size="14.00">model_1: Model</text>
<polyline fill="none" stroke="black" points="439,-166.5 439,-212.5 "/>
<text text-anchor="middle" x="467" y="-197.3" font-family="Times New Roman,serif" font-size="14.00">input:</text>
<polyline fill="none" stroke="black" points="439,-189.5 495,-189.5 "/>
<text text-anchor="middle" x="467" y="-174.3" font-family="Times New Roman,serif" font-size="14.00">output:</text>
<polyline fill="none" stroke="black" points="495,-166.5 495,-212.5 "/>
<text text-anchor="middle" x="557.5" y="-197.3" font-family="Times New Roman,serif" font-size="14.00">(None, 139, 139, 3)</text>
<polyline fill="none" stroke="black" points="495,-189.5 620,-189.5 "/>
<text text-anchor="middle" x="557.5" y="-174.3" font-family="Times New Roman,serif" font-size="14.00">(None, 128)</text>
</g>
<!-- 1856094353056&#45;&gt;1855790059080 -->
<g id="edge1" class="edge"><title>1856094353056&#45;&gt;1855790059080</title>
<path fill="none" stroke="black" d="M239.606,-249.473C282.289,-238.803 333.68,-225.955 377.585,-214.979"/>
<polygon fill="black" stroke="black" points="378.559,-218.343 387.411,-212.522 376.861,-211.552 378.559,-218.343"/>
</g>
<!-- 1856094970544 -->
<g id="node2" class="node"><title>1856094970544</title>
<polygon fill="none" stroke="black" points="321,-249.5 321,-295.5 630,-295.5 630,-249.5 321,-249.5"/>
<text text-anchor="middle" x="385" y="-268.8" font-family="Times New Roman,serif" font-size="14.00">positive: InputLayer</text>
<polyline fill="none" stroke="black" points="449,-249.5 449,-295.5 "/>
<text text-anchor="middle" x="477" y="-280.3" font-family="Times New Roman,serif" font-size="14.00">input:</text>
<polyline fill="none" stroke="black" points="449,-272.5 505,-272.5 "/>
<text text-anchor="middle" x="477" y="-257.3" font-family="Times New Roman,serif" font-size="14.00">output:</text>
<polyline fill="none" stroke="black" points="505,-249.5 505,-295.5 "/>
<text text-anchor="middle" x="567.5" y="-280.3" font-family="Times New Roman,serif" font-size="14.00">(None, 139, 139, 3)</text>
<polyline fill="none" stroke="black" points="505,-272.5 630,-272.5 "/>
<text text-anchor="middle" x="567.5" y="-257.3" font-family="Times New Roman,serif" font-size="14.00">(None, 139, 139, 3)</text>
</g>
<!-- 1856094970544&#45;&gt;1855790059080 -->
<g id="edge2" class="edge"><title>1856094970544&#45;&gt;1855790059080</title>
<path fill="none" stroke="black" d="M475.5,-249.366C475.5,-241.152 475.5,-231.658 475.5,-222.725"/>
<polygon fill="black" stroke="black" points="479,-222.607 475.5,-212.607 472,-222.607 479,-222.607"/>
</g>
<!-- 1856096124824 -->
<g id="node3" class="node"><title>1856096124824</title>
<polygon fill="none" stroke="black" points="648.5,-249.5 648.5,-295.5 952.5,-295.5 952.5,-249.5 648.5,-249.5"/>
<text text-anchor="middle" x="710" y="-268.8" font-family="Times New Roman,serif" font-size="14.00">negtive: InputLayer</text>
<polyline fill="none" stroke="black" points="771.5,-249.5 771.5,-295.5 "/>
<text text-anchor="middle" x="799.5" y="-280.3" font-family="Times New Roman,serif" font-size="14.00">input:</text>
<polyline fill="none" stroke="black" points="771.5,-272.5 827.5,-272.5 "/>
<text text-anchor="middle" x="799.5" y="-257.3" font-family="Times New Roman,serif" font-size="14.00">output:</text>
<polyline fill="none" stroke="black" points="827.5,-249.5 827.5,-295.5 "/>
<text text-anchor="middle" x="890" y="-280.3" font-family="Times New Roman,serif" font-size="14.00">(None, 139, 139, 3)</text>
<polyline fill="none" stroke="black" points="827.5,-272.5 952.5,-272.5 "/>
<text text-anchor="middle" x="890" y="-257.3" font-family="Times New Roman,serif" font-size="14.00">(None, 139, 139, 3)</text>
</g>
<!-- 1856096124824&#45;&gt;1855790059080 -->
<g id="edge3" class="edge"><title>1856096124824&#45;&gt;1855790059080</title>
<path fill="none" stroke="black" d="M712.122,-249.473C669.308,-238.803 617.758,-225.955 573.717,-214.979"/>
<polygon fill="black" stroke="black" points="574.41,-211.545 563.861,-212.522 572.718,-218.337 574.41,-211.545"/>
</g>
<!-- 1856096330584 -->
<g id="node5" class="node"><title>1856096330584</title>
<polygon fill="none" stroke="black" points="345,-83.5 345,-129.5 606,-129.5 606,-83.5 345,-83.5"/>
<text text-anchor="middle" x="406" y="-102.8" font-family="Times New Roman,serif" font-size="14.00">normalize: Lambda</text>
<polyline fill="none" stroke="black" points="467,-83.5 467,-129.5 "/>
<text text-anchor="middle" x="495" y="-114.3" font-family="Times New Roman,serif" font-size="14.00">input:</text>
<polyline fill="none" stroke="black" points="467,-106.5 523,-106.5 "/>
<text text-anchor="middle" x="495" y="-91.3" font-family="Times New Roman,serif" font-size="14.00">output:</text>
<polyline fill="none" stroke="black" points="523,-83.5 523,-129.5 "/>
<text text-anchor="middle" x="564.5" y="-114.3" font-family="Times New Roman,serif" font-size="14.00">(None, 128)</text>
<polyline fill="none" stroke="black" points="523,-106.5 606,-106.5 "/>
<text text-anchor="middle" x="564.5" y="-91.3" font-family="Times New Roman,serif" font-size="14.00">(None, 128)</text>
</g>
<!-- 1855790059080&#45;&gt;1856096330584 -->
<g id="edge4" class="edge"><title>1855790059080&#45;&gt;1856096330584</title>
<path fill="none" stroke="black" d="M475.5,-166.366C475.5,-158.152 475.5,-148.658 475.5,-139.725"/>
<polygon fill="black" stroke="black" points="479,-139.607 475.5,-129.607 472,-139.607 479,-139.607"/>
</g>
<!-- 1856094923072 -->
<g id="node6" class="node"><title>1856094923072</title>
<polygon fill="none" stroke="black" points="240.5,-0.5 240.5,-46.5 710.5,-46.5 710.5,-0.5 240.5,-0.5"/>
<text text-anchor="middle" x="327" y="-19.8" font-family="Times New Roman,serif" font-size="14.00">concatenate_1: Concatenate</text>
<polyline fill="none" stroke="black" points="413.5,-0.5 413.5,-46.5 "/>
<text text-anchor="middle" x="441.5" y="-31.3" font-family="Times New Roman,serif" font-size="14.00">input:</text>
<polyline fill="none" stroke="black" points="413.5,-23.5 469.5,-23.5 "/>
<text text-anchor="middle" x="441.5" y="-8.3" font-family="Times New Roman,serif" font-size="14.00">output:</text>
<polyline fill="none" stroke="black" points="469.5,-0.5 469.5,-46.5 "/>
<text text-anchor="middle" x="590" y="-31.3" font-family="Times New Roman,serif" font-size="14.00">[(None, 128), (None, 128), (None, 128)]</text>
<polyline fill="none" stroke="black" points="469.5,-23.5 710.5,-23.5 "/>
<text text-anchor="middle" x="590" y="-8.3" font-family="Times New Roman,serif" font-size="14.00">(None, 384)</text>
</g>
<!-- 1856096330584&#45;&gt;1856094923072 -->
<g id="edge7" class="edge"><title>1856096330584&#45;&gt;1856094923072</title>
<path fill="none" stroke="black" d="M475.5,-83.3664C475.5,-75.1516 475.5,-65.6579 475.5,-56.7252"/>
<polygon fill="black" stroke="black" points="479,-56.6068 475.5,-46.6068 472,-56.6069 479,-56.6068"/>
</g>
</g>
</svg>
